<?xml version="1.0" encoding="UTF-8" standalone="no"?>
<!DOCTYPE svg PUBLIC "-//W3C//DTD SVG 1.1//EN" "http://www.w3.org/Graphics/SVG/1.1/DTD/svg11.dtd">
<svg viewBox="0 0 1280 800" version="1.1" xmlns="http://www.w3.org/2000/svg" xmlns:xlink="http://www.w3.org/1999/xlink" xml:space="preserve" xmlns:serif="http://www.serif.com/" style="fill-rule:evenodd;clip-rule:evenodd;stroke-linejoin:round;stroke-miterlimit:2;">
    <path d="M1280,-0l0,800l-1280,0l0,-800l1280,-0Zm-437.286,713.773l322.068,-322.067c15.003,-15.003 23.431,-35.352 23.431,-56.569l0,-218.958c0,-31.006 -25.172,-56.179 -56.178,-56.179l-638.181,-0c-21.217,-0 -41.565,8.429 -56.568,23.431l-322.068,322.068c-15.003,15.003 -23.431,35.351 -23.431,56.569l-0,218.958c-0,31.006 25.172,56.179 56.178,56.179l638.181,-0c21.217,-0 41.565,-8.429 56.568,-23.432Z" style="fill:#ff0065;"/>
</svg>