<?xml version="1.0" encoding="UTF-8" standalone="no"?>
<!DOCTYPE svg PUBLIC "-//W3C//DTD SVG 1.1//EN" "http://www.w3.org/Graphics/SVG/1.1/DTD/svg11.dtd">
<svg viewBox="0 0 5334 3334" version="1.1" xmlns="http://www.w3.org/2000/svg" xmlns:xlink="http://www.w3.org/1999/xlink" xml:space="preserve" xmlns:serif="http://www.serif.com/" style="fill-rule:evenodd;clip-rule:evenodd;stroke-linejoin:round;stroke-miterlimit:2;">
    <path d="M5333.33,-0L5333.33,3333.33L0,3333.33L0,-0L5333.33,-0ZM3511.31,2974.05L4853.26,1632.11C4915.77,1569.6 4950.89,1484.81 4950.89,1396.4L4950.89,484.078C4950.89,354.887 4846,250 4716.81,250L2057.73,250C1969.32,250 1884.54,285.119 1822.02,347.631L480.076,1689.58C417.563,1752.09 382.445,1836.88 382.445,1925.28L382.445,2837.61C382.445,2966.8 487.331,3071.69 616.522,3071.69L3275.61,3071.69C3364.01,3071.69 3448.8,3036.57 3511.31,2974.05Z" style="fill:#3000f0;"/>
</svg>
